<svg width="96" height="96" viewBox="0 0 96 96" fill="none" xmlns="http://www.w3.org/2000/svg">
  <defs>
    <linearGradient id="bg" x1="12" y1="12" x2="84" y2="84" gradientUnits="userSpaceOnUse">
      <stop stop-color="#0F172A"/>
      <stop offset="1" stop-color="#111827"/>
    </linearGradient>
    <linearGradient id="accent" x1="18" y1="18" x2="78" y2="78" gradientUnits="userSpaceOnUse">
      <stop stop-color="#67E8F9"/>
      <stop offset="1" stop-color="#A78BFA"/>
    </linearGradient>
    <filter id="glow" x="0" y="0" width="96" height="96" filterUnits="userSpaceOnUse">
      <feGaussianBlur stdDeviation="2.5" result="blur"/>
      <feColorMatrix in="blur" type="matrix" values="0 0 0 0 0.403 0 0 0 0 0.91 0 0 0 0 0.96 0 0 0 0.55 0" result="colored"/>
      <feMerge>
        <feMergeNode in="colored"/>
        <feMergeNode in="SourceGraphic"/>
      </feMerge>
    </filter>
  </defs>

  <rect x="2" y="2" width="92" height="92" rx="22" fill="url(#bg)" stroke="rgba(255,255,255,0.10)" stroke-width="2"/>
  <rect x="10" y="10" width="76" height="76" rx="18" fill="rgba(255,255,255,0.03)" stroke="rgba(103,232,249,0.14)" stroke-width="1.5"/>

  <g filter="url(#glow)">
    <circle cx="48" cy="48" r="23" stroke="url(#accent)" stroke-width="6" opacity="0.95"/>
    <circle cx="48" cy="48" r="16" stroke="rgba(255,255,255,0.08)" stroke-width="1.5"/>
  </g>

  <path d="M37 36C42.5 31.5 53.5 31.5 59 36" stroke="url(#accent)" stroke-width="5" stroke-linecap="round"/>
  <path d="M37 60C42.5 64.5 53.5 64.5 59 60" stroke="url(#accent)" stroke-width="5" stroke-linecap="round" opacity="0.75"/>
  <path d="M32 48H64" stroke="rgba(255,255,255,0.12)" stroke-width="2" stroke-linecap="round"/>

  <path d="M45.5 32.5L31 47L45.5 61.5" stroke="#67E8F9" stroke-width="5" stroke-linecap="round" stroke-linejoin="round"/>
  <path d="M50.5 32.5L65 47L50.5 61.5" stroke="#A78BFA" stroke-width="5" stroke-linecap="round" stroke-linejoin="round"/>

  <rect x="22" y="22" width="52" height="52" rx="14" stroke="rgba(255,255,255,0.06)" stroke-width="1"/>
</svg>
